<?xml version="1.0" encoding="UTF-8"?>
<svg width="1024" height="1024" viewBox="0 0 1024 1024" fill="none" xmlns="http://www.w3.org/2000/svg">
    <rect width="1024" height="1024" rx="256" fill="#1E40AF"/>
    <path d="M512 256C367.2 256 248 375.2 248 520C248 664.8 367.2 784 512 784C656.8 784 776 664.8 776 520C776 375.2 656.8 256 512 256ZM512 728C402.2 728 312 637.8 312 528C312 418.2 402.2 328 512 328C621.8 328 712 418.2 712 528C712 637.8 621.8 728 512 728Z" fill="white"/>
    <path d="M576 520C576 550.9 550.9 576 520 576C489.1 576 464 550.9 464 520C464 489.1 489.1 464 520 464C550.9 464 576 489.1 576 520Z" fill="white"/>
    <path d="M520 384C550.9 384 576 358.9 576 328C576 297.1 550.9 272 520 272C489.1 272 464 297.1 464 328C464 358.9 489.1 384 520 384Z" fill="#93C5FD"/>
    <path d="M520 640C489.1 640 464 665.1 464 696C464 726.9 489.1 752 520 752C550.9 752 576 726.9 576 696C576 665.1 550.9 640 520 640Z" fill="#93C5FD"/>
</svg>
