<?xml version="1.0" encoding="UTF-8"?>
<svg width="64" height="64" viewBox="0 0 64 64" fill="none" xmlns="http://www.w3.org/2000/svg">
    <rect width="64" height="64" rx="16" fill="#1E40AF"/>
    <path d="M32 16C25.4 16 20 21.4 20 28C20 34.6 25.4 40 32 40C38.6 40 44 34.6 44 28C44 21.4 38.6 16 32 16ZM32 36C27.6 36 24 32.4 24 28C24 23.6 27.6 20 32 20C36.4 20 40 23.6 40 28C40 32.4 36.4 36 32 36Z" fill="white"/>
    <path d="M36 28C36 30.2 34.2 32 32 32C29.8 32 28 30.2 28 28C28 25.8 29.8 24 32 24C34.2 24 36 25.8 36 28Z" fill="#93C5FD"/>
</svg>
