<?xml version="1.0" encoding="UTF-8"?>
<svg width="512" height="512" viewBox="0 0 512 512" fill="none" xmlns="http://www.w3.org/2000/svg">
    <rect width="512" height="512" rx="128" fill="#1E40AF"/>
    <path d="M256 128C185.3 128 128 185.3 128 256C128 326.7 185.3 384 256 384C326.7 384 384 326.7 384 256C384 185.3 326.7 128 256 128ZM256 352C202.1 352 160 309.9 160 256C160 202.1 202.1 160 256 160C309.9 160 352 202.1 352 256C352 309.9 309.9 352 256 352Z" fill="white"/>
    <path d="M288 256C288 273.7 273.7 288 256 288C238.3 288 224 273.7 224 256C224 238.3 238.3 224 256 224C273.7 224 288 238.3 288 256Z" fill="white"/>
    <path d="M256 192C256 174.3 270.3 160 288 160C305.7 160 320 174.3 320 192C320 209.7 305.7 224 288 224C270.3 224 256 209.7 256 192Z" fill="#93C5FD"/>
    <path d="M256 320C273.7 320 288 334.3 288 352C288 369.7 273.7 384 256 384C238.3 384 224 369.7 224 352C224 334.3 238.3 320 256 320Z" fill="#93C5FD"/>
</svg>
