<?xml version="1.0" encoding="UTF-8"?>
<svg width="1242" height="2436" viewBox="0 0 1242 2436" fill="none" xmlns="http://www.w3.org/2000/svg">
    <rect width="1242" height="2436" fill="url(#paint0_linear)"/>
    <rect x="365" y="868" width="512" height="512" rx="128" fill="#1E40AF"/>
    <path d="M621 996C550.3 996 493 1053.7 493 1124.5C493 1195.3 550.3 1253 621 1253C691.7 1253 749 1195.3 749 1124.5C749 1053.7 691.7 996 621 996ZM621 1221C567.1 1221 523 1176.9 523 1122.5C523 1068.1 567.1 1024 621 1024C674.9 1024 719 1068.1 719 1122.5C719 1176.9 674.9 1221 621 1221Z" fill="white"/>
    <path d="M653 1122.5C653 1140.2 638.7 1154.5 621 1154.5C603.3 1154.5 589 1140.2 589 1122.5C589 1104.8 603.3 1090.5 621 1090.5C638.7 1090.5 653 1104.8 653 1122.5Z" fill="white"/>
    <path d="M621 1058.5C638.7 1058.5 653 1044.2 653 1026.5C653 1008.8 638.7 994.5 621 994.5C603.3 994.5 589 1008.8 589 1026.5C589 1044.2 603.3 1058.5 621 1058.5Z" fill="#93C5FD"/>
    <path d="M621 1186.5C603.3 1186.5 589 1200.8 589 1218.5C589 1236.2 603.3 1250.5 621 1250.5C638.7 1250.5 653 1236.2 653 1218.5C653 1200.8 638.7 1186.5 621 1186.5Z" fill="#93C5FD"/>
    <defs>
        <linearGradient id="paint0_linear" x1="621" y1="0" x2="621" y2="2436" gradientUnits="userSpaceOnUse">
            <stop stop-color="#1E40AF"/>
            <stop offset="1" stop-color="#1E3A8A"/>
        </linearGradient>
    </defs>
</svg>
